<svg width="35" height="34" viewBox="0 0 35 34" fill="none" xmlns="http://www.w3.org/2000/svg">
<rect x="0.141846" width="34" height="34" rx="9" fill="#1A1F16"/>
<path d="M24.126 13.9555C24.0216 13.8505 23.8975 13.7672 23.7607 13.7105C23.624 13.6538 23.4774 13.6247 23.3293 13.625H21.0793V13.0625C21.0793 12.0182 20.6645 11.0167 19.9261 10.2783C19.1877 9.53984 18.1861 9.125 17.1418 9.125C16.0976 9.125 15.096 9.53984 14.3576 10.2783C13.6192 11.0167 13.2043 12.0182 13.2043 13.0625V13.625H10.9543C10.656 13.625 10.3698 13.7435 10.1589 13.9545C9.94787 14.1655 9.82935 14.4516 9.82935 14.75V22.3438C9.82935 23.7148 10.9895 24.875 12.3606 24.875H21.9231C22.5863 24.8752 23.2233 24.6159 23.6978 24.1525C23.9366 23.9247 24.1267 23.6509 24.2568 23.3476C24.3868 23.0442 24.454 22.7177 24.4543 22.3877V14.75C24.4548 14.6024 24.426 14.4563 24.3696 14.3199C24.3133 14.1835 24.2305 14.0597 24.126 13.9555ZM19.3918 19.8125H17.7043V21.5C17.7043 21.6492 17.6451 21.7923 17.5396 21.8977C17.4341 22.0032 17.291 22.0625 17.1418 22.0625C16.9927 22.0625 16.8496 22.0032 16.7441 21.8977C16.6386 21.7923 16.5793 21.6492 16.5793 21.5V19.8125H14.8918C14.7427 19.8125 14.5996 19.7532 14.4941 19.6477C14.3886 19.5423 14.3293 19.3992 14.3293 19.25C14.3293 19.1008 14.3886 18.9577 14.4941 18.8523C14.5996 18.7468 14.7427 18.6875 14.8918 18.6875H16.5793V17C16.5793 16.8508 16.6386 16.7077 16.7441 16.6023C16.8496 16.4968 16.9927 16.4375 17.1418 16.4375C17.291 16.4375 17.4341 16.4968 17.5396 16.6023C17.6451 16.7077 17.7043 16.8508 17.7043 17V18.6875H19.3918C19.541 18.6875 19.6841 18.7468 19.7896 18.8523C19.8951 18.9577 19.9543 19.1008 19.9543 19.25C19.9543 19.3992 19.8951 19.5423 19.7896 19.6477C19.6841 19.7532 19.541 19.8125 19.3918 19.8125ZM19.9543 13.625H14.3293V13.0625C14.3293 12.3166 14.6257 11.6012 15.1531 11.0738C15.6806 10.5463 16.3959 10.25 17.1418 10.25C17.8878 10.25 18.6031 10.5463 19.1306 11.0738C19.658 11.6012 19.9543 12.3166 19.9543 13.0625V13.625Z" fill="white"/>
</svg>
