<svg width="20" height="20" viewBox="0 0 20 20" fill="none" xmlns="http://www.w3.org/2000/svg">
<path d="M0.666597 18.5714H1.1666C1.21081 18.5714 1.2532 18.5526 1.28446 18.5191C1.31571 18.4856 1.33327 18.4402 1.33327 18.3929V10.7817C1.33289 10.7533 1.33885 10.7252 1.35064 10.6997C1.36243 10.6743 1.37972 10.6522 1.40107 10.6354C1.42243 10.6185 1.44722 10.6074 1.4734 10.6028C1.49959 10.5983 1.5264 10.6006 1.55161 10.6094C1.93396 10.7381 2.33101 10.8099 2.73162 10.8228C2.78079 10.8228 2.82746 10.825 2.87329 10.825C3.64383 10.8269 4.40198 10.6173 5.0754 10.2161C5.12637 10.1857 5.18374 10.1698 5.24207 10.1698C5.3004 10.1698 5.35776 10.1857 5.40874 10.2161C6.08201 10.6173 6.84002 10.8269 7.61043 10.825C8.37652 10.8262 9.12975 10.614 9.79629 10.2094C9.84769 10.1782 9.90576 10.1618 9.96483 10.1618C10.0239 10.1618 10.082 10.1782 10.1334 10.2094C10.8099 10.6155 11.5729 10.8277 12.3484 10.8254C13.1196 10.826 13.8776 10.6105 14.5472 10.2004C14.599 10.1689 14.6576 10.1523 14.7172 10.1523C14.7768 10.1523 14.8354 10.1689 14.8872 10.2004C15.5567 10.6105 16.3147 10.826 17.086 10.8254C17.1314 10.8254 17.1772 10.8254 17.2264 10.8232H17.2289C17.6436 10.8099 18.0543 10.7334 18.4489 10.596C18.4739 10.5873 18.5004 10.5851 18.5263 10.5896C18.5523 10.594 18.5769 10.6049 18.5981 10.6214C18.6194 10.638 18.6366 10.6597 18.6486 10.6847C18.6605 10.7098 18.6668 10.7375 18.6668 10.7656V18.3929C18.6668 18.4402 18.6844 18.4856 18.7156 18.5191C18.7469 18.5526 18.7893 18.5714 18.8335 18.5714H19.3126C19.6727 18.5714 19.9835 18.8679 19.9993 19.2536C20.0034 19.35 19.9892 19.4462 19.9575 19.5366C19.9259 19.6269 19.8775 19.7095 19.8153 19.7792C19.7531 19.849 19.6783 19.9045 19.5955 19.9425C19.5127 19.9804 19.4235 20 19.3335 20H0.687431C0.327427 20 0.0165892 19.7036 0.000755719 19.3179C-0.00329705 19.2215 0.0109221 19.1252 0.0425538 19.0348C0.0741856 18.9445 0.122574 18.862 0.1848 18.7922C0.247027 18.7224 0.321799 18.6669 0.404606 18.629C0.487412 18.591 0.576536 18.5715 0.666597 18.5714V18.5714ZM11.3334 15.5357C11.3334 15.5831 11.3509 15.6285 11.3822 15.662C11.4135 15.6955 11.4559 15.7143 11.5001 15.7143H15.1668C15.211 15.7143 15.2534 15.6955 15.2846 15.662C15.3159 15.6285 15.3334 15.5831 15.3334 15.5357V12.6786C15.3334 12.5365 15.2808 12.4002 15.187 12.2998C15.0932 12.1993 14.966 12.1429 14.8334 12.1429H11.8334C11.7008 12.1429 11.5736 12.1993 11.4798 12.2998C11.3861 12.4002 11.3334 12.5365 11.3334 12.6786V15.5357ZM4.83331 18.5714H7.83335C7.87755 18.5714 7.91994 18.5526 7.9512 18.5191C7.98246 18.4856 8.00002 18.4402 8.00002 18.3929V12.6786C8.00002 12.5365 7.94734 12.4002 7.85357 12.2998C7.7598 12.1993 7.63262 12.1429 7.50001 12.1429H5.16665C5.03404 12.1429 4.90686 12.1993 4.81309 12.2998C4.71932 12.4002 4.66664 12.5365 4.66664 12.6786V18.3929C4.66664 18.4402 4.6842 18.4856 4.71546 18.5191C4.74672 18.5526 4.78911 18.5714 4.83331 18.5714ZM0.142841 6.17321L1.9312 1.77634C2.39953 0.697321 3.46913 0 4.65623 0H15.3459C16.533 0 17.6026 0.697321 18.071 1.77634L19.8593 6.17321C20.2343 7.03973 19.7389 7.92946 19.7385 7.92991L19.7268 7.95C19.7064 7.98482 19.6702 8.03929 19.6481 8.07411C19.646 8.07679 19.6443 8.07991 19.6422 8.08304L19.4339 8.35313C19.4261 8.36332 19.4178 8.37301 19.4089 8.38214L19.2006 8.59777L19.1831 8.61384C19.0607 8.7262 18.9298 8.82744 18.7918 8.91652V8.91875C18.3383 9.21306 17.8217 9.37712 17.2918 9.39509H17.1889C16.3871 9.39669 15.6145 9.07271 15.0268 8.48839L15.013 8.47455C14.9516 8.41259 14.8705 8.37808 14.7861 8.37808C14.7018 8.37808 14.6206 8.41259 14.5593 8.47455L14.5455 8.48839C13.9515 9.07171 13.175 9.3953 12.3692 9.3953C11.5635 9.3953 10.787 9.07171 10.193 8.48839C10.1313 8.42727 10.0505 8.39332 9.9665 8.39332C9.88253 8.39332 9.80165 8.42727 9.74004 8.48839C9.14779 9.06987 8.37413 9.39328 7.57083 9.39518C6.76752 9.39708 5.99254 9.07733 5.3979 8.49866C5.3372 8.43842 5.25752 8.40495 5.17478 8.40495C5.09204 8.40495 5.01235 8.43842 4.95165 8.49866C4.35638 9.08086 3.57801 9.40099 2.77204 9.39509H2.66829C2.15168 9.37442 1.64902 9.20978 1.20994 8.91741C1.17035 8.89196 1.13244 8.86518 1.0941 8.83839C0.797961 8.62449 0.540227 8.35516 0.33326 8.0433L0.26076 7.92589C0.253537 7.91399 0.24687 7.90149 0.240759 7.88839C0.171591 7.7375 -0.199246 6.96161 0.142841 6.17321V6.17321Z" fill="#1A1F16"/>
</svg>
