<svg width="16" height="16" viewBox="0 0 16 16" fill="none" xmlns="http://www.w3.org/2000/svg">
<path d="M15.2007 4.95547C15.0963 4.85047 14.9722 4.76721 14.8355 4.71048C14.6987 4.65376 14.5521 4.62471 14.4041 4.625H12.1541V4.0625C12.1541 3.01821 11.7392 2.01669 11.0008 1.27827C10.2624 0.539843 9.26086 0.125 8.21657 0.125C7.17228 0.125 6.17076 0.539843 5.43234 1.27827C4.69391 2.01669 4.27907 3.01821 4.27907 4.0625V4.625H2.02907C1.7307 4.625 1.44455 4.74353 1.23357 4.9545C1.02259 5.16548 0.904068 5.45163 0.904068 5.75V13.3438C0.904068 14.7148 2.06422 15.875 3.43532 15.875H12.9978C13.661 15.8752 14.298 15.6159 14.7725 15.1525C15.0113 14.9247 15.2014 14.6509 15.3315 14.3476C15.4615 14.0442 15.5287 13.7177 15.5291 13.3877V5.75C15.5295 5.60244 15.5007 5.45626 15.4444 5.31989C15.388 5.18352 15.3052 5.05966 15.2007 4.95547ZM10.4666 10.8125H8.77907V12.5C8.77907 12.6492 8.71981 12.7923 8.61432 12.8977C8.50883 13.0032 8.36575 13.0625 8.21657 13.0625C8.06738 13.0625 7.92431 13.0032 7.81882 12.8977C7.71333 12.7923 7.65407 12.6492 7.65407 12.5V10.8125H5.96657C5.81738 10.8125 5.67431 10.7532 5.56882 10.6477C5.46333 10.5423 5.40407 10.3992 5.40407 10.25C5.40407 10.1008 5.46333 9.95774 5.56882 9.85225C5.67431 9.74676 5.81738 9.6875 5.96657 9.6875H7.65407V8C7.65407 7.85082 7.71333 7.70774 7.81882 7.60225C7.92431 7.49676 8.06738 7.4375 8.21657 7.4375C8.36575 7.4375 8.50883 7.49676 8.61432 7.60225C8.71981 7.70774 8.77907 7.85082 8.77907 8V9.6875H10.4666C10.6158 9.6875 10.7588 9.74676 10.8643 9.85225C10.9698 9.95774 11.0291 10.1008 11.0291 10.25C11.0291 10.3992 10.9698 10.5423 10.8643 10.6477C10.7588 10.7532 10.6158 10.8125 10.4666 10.8125ZM11.0291 4.625H5.40407V4.0625C5.40407 3.31658 5.70038 2.60121 6.22783 2.07376C6.75528 1.54632 7.47065 1.25 8.21657 1.25C8.96249 1.25 9.67786 1.54632 10.2053 2.07376C10.7328 2.60121 11.0291 3.31658 11.0291 4.0625V4.625Z" fill="white"/>
</svg>
