<svg width="23" height="22" viewBox="0 0 23 22" fill="none" xmlns="http://www.w3.org/2000/svg">
<path d="M18.0051 21.5C17.8472 21.5006 17.6932 21.4514 17.5649 21.3594L11.5364 16.9887L5.50776 21.3594C5.37897 21.4528 5.2238 21.5028 5.06469 21.5022C4.90558 21.5016 4.75078 21.4505 4.62267 21.3561C4.49455 21.2618 4.39976 21.1291 4.352 20.9774C4.30424 20.8256 4.30599 20.6626 4.35698 20.5119L6.70823 13.5476L0.614484 9.36873C0.482489 9.27831 0.382867 9.14806 0.330174 8.99699C0.27748 8.84592 0.274477 8.68196 0.321602 8.52907C0.368727 8.37617 0.463512 8.24235 0.592106 8.14716C0.720701 8.05197 0.876366 8.0004 1.03636 7.99998H8.55417L10.8229 1.01795C10.8718 0.867212 10.9672 0.735826 11.0953 0.642643C11.2235 0.54946 11.3779 0.499268 11.5364 0.499268C11.6948 0.499268 11.8492 0.54946 11.9774 0.642643C12.1056 0.735826 12.2009 0.867212 12.2498 1.01795L14.5185 8.00233H22.0363C22.1965 8.00225 22.3526 8.05346 22.4815 8.14847C22.6105 8.24347 22.7057 8.37728 22.7531 8.5303C22.8005 8.68331 22.7977 8.84748 22.7451 8.99878C22.6924 9.15008 22.5927 9.28054 22.4606 9.37107L16.3645 13.5476L18.7143 20.51C18.7524 20.6227 18.7631 20.7429 18.7456 20.8605C18.728 20.9782 18.6827 21.09 18.6135 21.1868C18.5442 21.2835 18.4529 21.3623 18.3471 21.4168C18.2413 21.4712 18.1241 21.4998 18.0051 21.5Z" fill="#12805D"/>
</svg>
